<svg xmlns="http://www.w3.org/2000/svg" xmlns:xlink="http://www.w3.org/1999/xlink" width="800" zoomAndPan="magnify" viewBox="0 0 600 599.999999" height="800" preserveAspectRatio="xMidYMid meet" version="1.0"><defs><clipPath id="9fc0210a49"><path d="M 1 151.089844 L 599 151.089844 L 599 279 L 1 279 Z M 1 151.089844 " clip-rule="nonzero"/></clipPath></defs><g clip-path="url(#9fc0210a49)"><path stroke-linecap="round" transform="matrix(6.578947, 0, 0, 6.577653, -882.236914, -884.011574)" fill="none" stroke-linejoin="round" d="M 223.009924 174.770236 L 215.789924 167.089756 L 208.55983 159.40987 L 201.329736 167.089756 L 194.100236 174.770236 L 186.880236 167.089756 L 179.650142 159.40987 L 172.420048 167.089756 L 165.189954 174.770236 L 157.95986 167.089756 L 150.739859 159.40987 L 143.509765 167.089756 L 136.280265 174.770236 " stroke="#000000" stroke-width="4" stroke-opacity="1" stroke-miterlimit="4"/></g><path stroke-linecap="round" transform="matrix(6.578947, 0, 0, 6.577653, -882.236914, -884.011574)" fill="none" stroke-linejoin="round" d="M 223.009924 200.380149 L 215.789924 192.700263 L 208.55983 185.029879 L 201.329736 192.700263 L 194.100236 200.380149 L 186.880236 192.700263 L 179.650142 185.029879 L 172.420048 192.700263 L 165.189954 200.380149 L 157.95986 192.700263 L 150.739859 185.029879 L 143.509765 192.700263 L 136.280265 200.380149 " stroke="#000000" stroke-width="4" stroke-opacity="1" stroke-miterlimit="4"/></svg>