<svg xmlns="http://www.w3.org/2000/svg" xmlns:xlink="http://www.w3.org/1999/xlink" width="800" zoomAndPan="magnify" viewBox="0 0 600 599.999999" height="800" preserveAspectRatio="xMidYMid meet" version="1.0"><defs><clipPath id="7c5bdd6d95"><path d="M 0 20.125 L 600 20.125 L 600 579.625 L 0 579.625 Z M 0 20.125 " clip-rule="nonzero"/></clipPath></defs><g clip-path="url(#7c5bdd6d95)"><path fill="#000000" d="M 16.671875 53.523438 C 61.214844 53.523438 97.460938 89.753906 97.460938 134.28125 L 97.460938 470.929688 C 97.460938 480.132812 104.921875 487.59375 114.132812 487.59375 C 123.339844 487.59375 130.800781 480.132812 130.800781 470.929688 L 130.800781 134.28125 C 130.800781 89.753906 167.046875 53.527344 211.597656 53.527344 C 256.144531 53.527344 292.386719 89.753906 292.386719 134.273438 L 292.25 377.726562 C 292.230469 409.921875 299.054688 440.527344 312.175781 467.75 C 299.285156 478.636719 286.617188 488.816406 272.675781 497.4375 C 240.890625 517.09375 203.820312 530.65625 162.511719 537.746094 C 153.433594 539.300781 147.347656 547.914062 148.902344 556.984375 C 150.457031 566.054688 159.113281 572.171875 168.152344 570.589844 C 213.707031 562.773438 254.777344 547.695312 290.21875 525.777344 C 304.339844 517.039062 317.195312 506.980469 329.476562 496.738281 C 332.671875 501.152344 336.074219 505.453125 339.601562 509.546875 C 370.140625 545.007812 410.109375 568.820312 452.140625 576.597656 C 462.292969 578.472656 473.246094 579.550781 484.460938 579.550781 C 519.941406 579.550781 558.0625 568.75 581.679688 538.1875 C 613.800781 496.621094 600.046875 437.335938 568.207031 404.035156 C 538.089844 372.542969 490.042969 360.09375 448.59375 373.035156 C 415.195312 383.46875 385.664062 407.375 359.605469 428.464844 C 355.269531 431.976562 350.996094 435.433594 346.796875 438.757812 C 344.054688 440.925781 341.34375 443.125 338.652344 445.339844 C 330.035156 424.636719 325.570312 401.757812 325.589844 377.746094 L 325.726562 134.285156 C 325.726562 71.378906 274.523438 20.199219 211.597656 20.199219 C 170.304688 20.199219 134.171875 42.304688 114.132812 75.226562 C 94.085938 42.304688 57.957031 20.199219 16.671875 20.199219 C 7.460938 20.199219 0 27.660156 0 36.863281 C 0 46.066406 7.460938 53.523438 16.671875 53.523438 Z M 367.484375 464.890625 C 371.78125 461.488281 376.152344 457.957031 380.585938 454.363281 C 405.480469 434.210938 431.226562 413.378906 458.542969 404.839844 C 487.726562 395.714844 522.890625 404.863281 544.101562 427.058594 C 566.210938 450.175781 576.441406 490.445312 555.292969 517.8125 C 533.355469 546.207031 489.277344 549.574219 458.210938 543.824219 C 423.613281 537.429688 390.46875 517.535156 364.867188 487.800781 C 361.578125 483.992188 358.425781 479.957031 355.488281 475.804688 C 355.320312 475.570312 355.15625 475.335938 354.988281 475.101562 C 359.128906 471.632812 363.304688 468.195312 367.484375 464.890625 Z M 367.484375 464.890625 " fill-opacity="1" fill-rule="nonzero"/></g></svg>