<svg xmlns="http://www.w3.org/2000/svg" xmlns:xlink="http://www.w3.org/1999/xlink" width="800" zoomAndPan="magnify" viewBox="0 0 600 599.999999" height="800" preserveAspectRatio="xMidYMid meet" version="1.0"><path fill="#000000" d="M 401.492188 110.308594 C 437.335938 92.230469 471.546875 64.617188 503 27.851562 C 508.980469 20.867188 508.160156 10.363281 501.171875 4.386719 C 494.195312 -1.589844 483.683594 -0.769531 477.707031 6.214844 C 424.039062 68.941406 362.585938 102.097656 299.992188 102.097656 C 237.40625 102.09375 175.957031 68.9375 122.292969 6.210938 C 116.3125 -0.777344 105.800781 -1.585938 98.828125 4.382812 C 91.839844 10.363281 91.023438 20.867188 96.996094 27.851562 C 128.453125 64.621094 162.664062 92.234375 198.507812 110.308594 L 198.507812 489.65625 C 162.660156 507.730469 128.453125 535.34375 96.996094 572.113281 C 91.019531 579.097656 91.839844 589.605469 98.824219 595.582031 C 105.808594 601.554688 116.320312 600.746094 122.292969 593.753906 C 175.953125 531.027344 237.40625 497.871094 299.992188 497.871094 C 362.585938 497.871094 424.042969 531.023438 477.710938 593.753906 C 481 597.601562 485.667969 599.578125 490.363281 599.578125 C 494.191406 599.578125 498.039062 598.265625 501.175781 595.578125 C 508.160156 589.605469 508.980469 579.097656 503 572.113281 C 471.546875 535.34375 437.335938 507.730469 401.496094 489.65625 L 401.496094 110.308594 Z M 368.207031 299.984375 L 368.207031 475.734375 C 345.875 468.363281 323.058594 464.582031 299.996094 464.582031 C 276.933594 464.582031 254.125 468.363281 231.796875 475.734375 L 231.796875 124.234375 C 254.125 131.601562 276.933594 135.382812 299.996094 135.382812 C 300 135.382812 299.996094 135.382812 299.996094 135.382812 C 323.058594 135.382812 345.875 131.601562 368.207031 124.230469 Z M 368.207031 299.984375 " fill-opacity="1" fill-rule="nonzero"/></svg>