<svg xmlns="http://www.w3.org/2000/svg" xmlns:xlink="http://www.w3.org/1999/xlink" width="800" zoomAndPan="magnify" viewBox="0 0 600 599.999999" height="800" preserveAspectRatio="xMidYMid meet" version="1.0"><defs><clipPath id="ff9b029164"><path d="M 57 0 L 543 0 L 543 600 L 57 600 Z M 57 0 " clip-rule="nonzero"/></clipPath></defs><g clip-path="url(#ff9b029164)"><path fill="#000000" d="M 161.476562 474.796875 C 189.425781 474.796875 215.757812 463.679688 235.621094 443.496094 C 254.894531 423.902344 265.957031 397.230469 265.953125 370.324219 C 265.953125 316.027344 221.113281 275.457031 178.195312 267.371094 C 175.703125 243.851562 176.277344 219.6875 179.992188 195.332031 C 191.167969 121.988281 241.179688 43.78125 327.703125 34.390625 C 383.6875 28.296875 430.738281 50.089844 456.683594 94.148438 C 485.097656 142.410156 480.84375 205.640625 445.847656 255.238281 C 435.671875 269.652344 421.097656 286.492188 405.671875 304.324219 C 343.753906 375.875 258.960938 473.863281 336.363281 560.296875 C 359.660156 586.304688 388.320312 599.90625 418.230469 599.90625 C 429.636719 599.90625 441.230469 597.925781 452.773438 593.902344 C 501.222656 577.003906 540 526.507812 542.972656 476.4375 C 543.515625 467.25 536.511719 459.363281 527.324219 458.816406 C 518.15625 458.320312 510.246094 465.277344 509.703125 474.464844 C 507.519531 511.277344 477.691406 549.914062 441.796875 562.433594 C 421.363281 569.558594 390.800781 571.109375 361.191406 538.058594 C 307.617188 478.242188 358.625 409.621094 430.871094 326.128906 C 446.855469 307.660156 461.953125 290.214844 473.074219 274.453125 C 515.613281 214.179688 520.453125 136.769531 485.402344 77.242188 C 453.003906 22.222656 392.691406 -6.1875 324.109375 1.261719 C 219.972656 12.558594 160.144531 104.351562 147.042969 190.308594 C 143.085938 216.269531 142.347656 242.089844 144.71875 267.320312 C 95.066406 275.378906 57 318.433594 57 370.324219 C 57 427.933594 103.867188 474.796875 161.476562 474.796875 Z M 161.476562 299.171875 L 162.410156 299.171875 C 163.832031 299.171875 166.476562 299.171875 169.679688 299.632812 C 196.070312 303.4375 232.625 330.125 232.625 370.324219 C 232.625 388.558594 225.058594 406.707031 211.863281 420.121094 C 198.316406 433.886719 180.421875 441.46875 161.476562 441.46875 C 122.246094 441.46875 90.328125 409.554688 90.328125 370.324219 C 90.328125 331.089844 122.246094 299.171875 161.476562 299.171875 Z M 161.476562 299.171875 " fill-opacity="1" fill-rule="nonzero"/></g></svg>