<svg xmlns="http://www.w3.org/2000/svg" xmlns:xlink="http://www.w3.org/1999/xlink" width="800" zoomAndPan="magnify" viewBox="0 0 600 599.999999" height="800" preserveAspectRatio="xMidYMid meet" version="1.0"><defs><clipPath id="eb192277ee"><path d="M 0 127.25 L 599 127.25 L 599 357 L 0 357 Z M 0 127.25 " clip-rule="nonzero"/></clipPath></defs><g clip-path="url(#eb192277ee)"><path fill="#000000" d="M 16.804688 356.699219 C 16.84375 356.699219 16.894531 356.699219 16.933594 356.699219 L 157.136719 355.574219 C 157.144531 355.574219 157.15625 355.574219 157.167969 355.574219 C 166.367188 355.503906 173.765625 347.976562 173.695312 338.773438 L 173.292969 287.542969 C 173.019531 253.902344 185.855469 222.171875 209.4375 198.191406 C 233.019531 174.214844 264.515625 160.863281 298.128906 160.59375 C 298.476562 160.59375 298.8125 160.59375 299.152344 160.59375 C 368.074219 160.59375 424.433594 216.429688 424.984375 285.53125 L 425.394531 336.761719 C 425.46875 345.925781 432.910156 353.300781 442.054688 353.300781 C 442.09375 353.300781 442.144531 353.300781 442.183594 353.300781 L 582.378906 352.175781 C 591.578125 352.101562 598.976562 344.578125 598.90625 335.371094 C 598.835938 326.210938 591.390625 318.835938 582.246094 318.835938 C 582.207031 318.835938 582.15625 318.835938 582.117188 318.835938 L 458.578125 319.824219 L 458.300781 285.261719 C 457.597656 197.863281 386.332031 127.25 299.160156 127.25 C 298.730469 127.25 298.292969 127.25 297.871094 127.253906 C 255.355469 127.589844 215.515625 144.480469 185.695312 174.808594 C 155.875 205.132812 139.636719 245.261719 139.976562 287.804688 L 140.25 322.367188 L 16.675781 323.355469 C 7.476562 323.433594 0.0742188 330.953125 0.148438 340.160156 C 0.21875 349.324219 7.660156 356.699219 16.804688 356.699219 Z M 16.804688 356.699219 " fill-opacity="1" fill-rule="nonzero"/></g><path fill="#000000" d="M 583.179688 435.140625 C 583.140625 435.140625 583.089844 435.140625 583.050781 435.140625 L 17.640625 439.660156 C 8.4375 439.734375 1.039062 447.253906 1.109375 456.460938 C 1.183594 465.625 8.625 473 17.769531 473 C 17.808594 473 17.859375 473 17.898438 473 L 583.3125 468.480469 C 592.511719 468.40625 599.910156 460.882812 599.839844 451.675781 C 599.765625 442.515625 592.320312 435.140625 583.179688 435.140625 Z M 583.179688 435.140625 " fill-opacity="1" fill-rule="nonzero"/></svg>