<svg xmlns="http://www.w3.org/2000/svg" xmlns:xlink="http://www.w3.org/1999/xlink" width="800" zoomAndPan="magnify" viewBox="0 0 600 599.999999" height="800" preserveAspectRatio="xMidYMid meet" version="1.0"><path fill="#000000" d="M 575.984375 3.9375 C 581.613281 -1.335938 590.402344 -1.335938 596.027344 3.9375 C 601.300781 9.5625 601.300781 18.351562 596.027344 23.980469 L 305.960938 313.695312 L 23.980469 596.027344 C 18.351562 601.300781 9.5625 601.300781 3.9375 596.027344 C -1.335938 590.402344 -1.335938 581.613281 3.9375 575.984375 L 286.269531 294.003906 Z M 575.984375 3.9375 " fill-opacity="1" fill-rule="nonzero"/><path fill="#000000" d="M 102.738281 188.878906 C 96.40625 184.308594 95 175.515625 99.570312 169.1875 C 104.144531 162.859375 112.933594 161.453125 119.261719 166.023438 C 187.824219 216.652344 241.265625 260.957031 290.136719 309.828125 C 339.007812 358.699219 383.3125 412.140625 433.941406 480.703125 C 438.511719 487.03125 437.105469 495.820312 430.777344 500.394531 C 424.449219 504.964844 415.65625 503.558594 411.085938 497.226562 C 361.511719 430.074219 318.265625 377.683594 270.097656 329.867188 C 222.28125 281.699219 169.890625 238.453125 102.738281 188.878906 Z M 102.738281 188.878906 " fill-opacity="1" fill-rule="nonzero"/><path fill="#000000" d="M 397.375 28.199219 C 389.640625 28.199219 383.3125 21.871094 383.3125 14.132812 C 383.3125 6.398438 389.640625 0.0703125 397.375 0.0703125 L 585.832031 0.0703125 C 593.566406 0.0703125 599.894531 6.398438 599.894531 14.132812 L 599.894531 202.589844 C 599.894531 210.324219 593.566406 216.652344 585.832031 216.652344 C 578.09375 216.652344 571.765625 210.324219 571.765625 202.589844 L 571.765625 28.199219 Z M 397.375 28.199219 " fill-opacity="1" fill-rule="nonzero"/></svg>