<svg xmlns="http://www.w3.org/2000/svg" xmlns:xlink="http://www.w3.org/1999/xlink" width="800" zoomAndPan="magnify" viewBox="0 0 600 599.999999" height="800" preserveAspectRatio="xMidYMid meet" version="1.0"><defs><clipPath id="f60d4a6c6c"><path d="M 0 20.125 L 600 20.125 L 600 579.625 L 0 579.625 Z M 0 20.125 " clip-rule="nonzero"/></clipPath></defs><g clip-path="url(#f60d4a6c6c)"><path fill="#000000" d="M 16.667969 53.625 C 63.953125 53.625 102.417969 92.078125 102.417969 139.339844 L 102.417969 502.410156 C 102.417969 511.613281 109.882812 519.070312 119.085938 519.070312 C 128.292969 519.070312 135.753906 511.613281 135.753906 502.410156 L 135.753906 139.339844 C 135.753906 134.761719 135.433594 130.261719 134.929688 125.816406 C 135.417969 124.25 135.753906 122.617188 135.753906 120.890625 C 135.753906 83.800781 165.941406 53.625 203.046875 53.625 C 240.152344 53.625 270.339844 83.800781 270.339844 120.890625 L 270.339844 468.359375 C 270.339844 477.5625 277.800781 485.019531 287.007812 485.019531 C 296.214844 485.019531 303.675781 477.558594 303.675781 468.359375 L 303.675781 120.890625 C 303.675781 118.78125 303.484375 116.722656 303.359375 114.648438 C 303.554688 113.632812 303.675781 112.589844 303.675781 111.515625 C 303.675781 79.59375 329.652344 53.625 361.585938 53.625 C 393.519531 53.625 419.5 79.59375 419.5 111.515625 L 419.5 392.898438 C 419.5 393.300781 419.589844 393.675781 419.617188 394.070312 C 419.585938 394.566406 419.492188 395.046875 419.507812 395.550781 C 420.496094 434.660156 425.570312 468.328125 443.644531 498.519531 C 389.6875 531.636719 325.199219 548.390625 265.367188 545.882812 C 255.921875 545.421875 248.398438 552.640625 248.015625 561.839844 C 247.632812 571.03125 254.78125 578.796875 263.972656 579.179688 C 268.277344 579.359375 272.574219 579.445312 276.910156 579.445312 C 340.277344 579.445312 407.277344 560.332031 463.792969 524.875 C 465.074219 526.226562 466.308594 527.589844 467.660156 528.933594 C 494.929688 555.945312 531 572.792969 569.222656 576.375 C 569.75 576.425781 570.277344 576.449219 570.796875 576.449219 C 579.300781 576.449219 586.566406 569.976562 587.375 561.34375 C 588.234375 552.179688 581.5 544.058594 572.332031 543.199219 C 542.351562 540.390625 512.902344 526.664062 491.441406 505.546875 C 547.246094 462.109375 588.535156 400.730469 598.261719 324.523438 C 602.304688 292.882812 599.421875 265.246094 589.679688 242.394531 C 576.082031 210.5 552.03125 191.117188 521.957031 187.8125 C 498.609375 185.253906 473.804688 193.199219 452.835938 208.917969 L 452.835938 111.515625 C 452.84375 61.222656 411.90625 20.304688 361.589844 20.304688 C 329.351562 20.304688 301.03125 37.148438 284.792969 62.449219 C 266.519531 36.984375 236.726562 20.304688 203.050781 20.304688 C 165.1875 20.304688 132.167969 41.335938 114.996094 72.304688 C 93.527344 40.941406 57.472656 20.304688 16.667969 20.304688 C 7.460938 20.304688 0 27.761719 0 36.964844 C 0 46.164062 7.460938 53.625 16.667969 53.625 Z M 452.84375 392.898438 L 452.84375 256.109375 C 452.984375 255.925781 453.160156 255.78125 453.300781 255.589844 C 470.183594 232.050781 495.765625 218.457031 518.320312 220.933594 C 536.152344 222.894531 550.222656 234.828125 559.019531 255.449219 C 566.402344 272.789062 568.488281 294.605469 565.207031 320.300781 C 556.671875 387.09375 520.394531 441 471.195312 479.40625 C 457.558594 455.429688 453.683594 428.09375 452.835938 394.707031 C 452.832031 394.441406 452.757812 394.195312 452.738281 393.933594 C 452.761719 393.585938 452.84375 393.253906 452.84375 392.898438 Z M 452.84375 392.898438 " fill-opacity="1" fill-rule="nonzero"/></g></svg>