<svg xmlns="http://www.w3.org/2000/svg" xmlns:xlink="http://www.w3.org/1999/xlink" width="800" zoomAndPan="magnify" viewBox="0 0 600 599.999999" height="800" preserveAspectRatio="xMidYMid meet" version="1.0"><defs><clipPath id="858cdeab9a"><path d="M 0 28.75 L 600 28.75 L 600 571 L 0 571 Z M 0 28.75 " clip-rule="nonzero"/></clipPath></defs><g clip-path="url(#858cdeab9a)"><path fill="#000000" d="M 104.757812 28.707031 C 35.382812 28.707031 2.867188 95.738281 2.867188 95.738281 C 2.550781 96.335938 2.265625 96.945312 2.011719 97.574219 C 1.753906 98.199219 1.53125 98.835938 1.339844 99.484375 C 1.148438 100.132812 0.988281 100.792969 0.863281 101.457031 C 0.734375 102.121094 0.644531 102.789062 0.582031 103.464844 C 0.523438 104.136719 0.5 104.8125 0.507812 105.488281 C 0.515625 106.164062 0.554688 106.839844 0.632812 107.511719 C 0.707031 108.183594 0.816406 108.851562 0.957031 109.511719 C 1.097656 110.171875 1.273438 110.824219 1.480469 111.46875 C 1.6875 112.113281 1.925781 112.746094 2.195312 113.367188 C 2.464844 113.988281 2.765625 114.59375 3.09375 115.183594 C 3.425781 115.773438 3.785156 116.34375 4.171875 116.898438 C 4.558594 117.453125 4.972656 117.988281 5.414062 118.503906 C 5.855469 119.015625 6.320312 119.503906 6.808594 119.972656 C 7.296875 120.441406 7.808594 120.882812 8.34375 121.296875 C 8.878906 121.714844 9.429688 122.101562 10.003906 122.460938 C 10.574219 122.824219 11.164062 123.15625 11.769531 123.457031 C 12.375 123.757812 12.996094 124.03125 13.625 124.269531 C 14.257812 124.511719 14.902344 124.71875 15.554688 124.894531 C 16.210938 125.074219 16.871094 125.214844 17.539062 125.328125 C 18.203125 125.4375 18.875 125.515625 19.550781 125.558594 C 20.226562 125.601562 20.902344 125.609375 21.578125 125.585938 C 22.253906 125.5625 22.929688 125.507812 23.597656 125.414062 C 24.269531 125.324219 24.933594 125.199219 25.59375 125.042969 C 26.25 124.886719 26.898438 124.695312 27.539062 124.476562 C 28.179688 124.253906 28.804688 124 29.417969 123.714844 C 30.03125 123.433594 30.632812 123.117188 31.214844 122.773438 C 31.796875 122.429688 32.359375 122.058594 32.90625 121.65625 C 33.453125 121.257812 33.976562 120.832031 34.480469 120.378906 C 34.984375 119.925781 35.460938 119.449219 35.917969 118.949219 C 36.375 118.449219 36.804688 117.929688 37.207031 117.386719 C 37.609375 116.84375 37.984375 116.28125 38.332031 115.699219 C 38.679688 115.121094 39 114.523438 39.285156 113.910156 C 39.285156 113.910156 62.523438 69.402344 104.757812 69.402344 C 129.441406 69.402344 153.636719 88.667969 176.746094 126.363281 C 199.859375 164.058594 219.609375 217.550781 235.007812 273.988281 C 265.804688 386.863281 279.644531 513.660156 279.644531 550.957031 C 279.652344 551.617188 279.695312 552.273438 279.769531 552.929688 C 279.839844 553.589844 279.945312 554.238281 280.082031 554.886719 C 280.21875 555.53125 280.386719 556.167969 280.585938 556.800781 C 280.785156 557.429688 281.015625 558.046875 281.273438 558.65625 C 281.535156 559.261719 281.824219 559.855469 282.140625 560.433594 C 282.457031 561.015625 282.800781 561.578125 283.171875 562.125 C 283.546875 562.667969 283.941406 563.195312 284.367188 563.703125 C 284.789062 564.210938 285.234375 564.695312 285.707031 565.160156 C 286.175781 565.621094 286.667969 566.0625 287.183594 566.476562 C 287.695312 566.894531 288.226562 567.285156 288.777344 567.648438 C 289.332031 568.011719 289.898438 568.347656 290.484375 568.65625 C 291.066406 568.964844 291.664062 569.246094 292.277344 569.496094 C 292.886719 569.746094 293.507812 569.96875 294.140625 570.15625 C 294.773438 570.347656 295.414062 570.507812 296.0625 570.632812 C 296.710938 570.761719 297.363281 570.859375 298.023438 570.921875 C 298.679688 570.984375 299.339844 571.019531 300 571.019531 C 300.660156 571.019531 301.320312 570.984375 301.976562 570.921875 C 302.636719 570.859375 303.289062 570.761719 303.9375 570.632812 C 304.585938 570.507812 305.226562 570.347656 305.859375 570.15625 C 306.492188 569.96875 307.113281 569.746094 307.722656 569.496094 C 308.335938 569.246094 308.933594 568.964844 309.515625 568.65625 C 310.101562 568.347656 310.667969 568.011719 311.21875 567.648438 C 311.773438 567.285156 312.304688 566.894531 312.816406 566.480469 C 313.332031 566.0625 313.824219 565.621094 314.292969 565.160156 C 314.765625 564.695312 315.210938 564.210938 315.632812 563.703125 C 316.058594 563.195312 316.453125 562.667969 316.828125 562.125 C 317.199219 561.578125 317.542969 561.015625 317.859375 560.433594 C 318.175781 559.855469 318.464844 559.261719 318.726562 558.65625 C 318.984375 558.046875 319.214844 557.429688 319.414062 556.800781 C 319.613281 556.167969 319.78125 555.53125 319.917969 554.886719 C 320.054688 554.238281 320.160156 553.589844 320.230469 552.929688 C 320.304688 552.273438 320.347656 551.617188 320.355469 550.957031 C 320.355469 513.660156 334.191406 386.859375 364.992188 273.988281 C 380.394531 217.550781 400.191406 164.058594 423.304688 126.363281 C 446.421875 88.667969 470.605469 69.402344 495.296875 69.402344 C 537.496094 69.402344 560.765625 113.910156 560.765625 113.910156 C 561.054688 114.523438 561.371094 115.121094 561.71875 115.699219 C 562.066406 116.28125 562.441406 116.84375 562.847656 117.386719 C 563.25 117.929688 563.679688 118.449219 564.136719 118.949219 C 564.589844 119.449219 565.070312 119.925781 565.574219 120.378906 C 566.074219 120.832031 566.601562 121.257812 567.144531 121.65625 C 567.691406 122.058594 568.257812 122.429688 568.839844 122.773438 C 569.421875 123.117188 570.019531 123.429688 570.632812 123.714844 C 571.25 124 571.875 124.253906 572.515625 124.476562 C 573.152344 124.695312 573.800781 124.886719 574.460938 125.042969 C 575.117188 125.199219 575.78125 125.324219 576.453125 125.414062 C 577.125 125.503906 577.796875 125.5625 578.472656 125.585938 C 579.148438 125.609375 579.824219 125.601562 580.5 125.558594 C 581.175781 125.511719 581.847656 125.4375 582.515625 125.324219 C 583.183594 125.214844 583.84375 125.070312 584.496094 124.894531 C 585.152344 124.71875 585.792969 124.511719 586.425781 124.269531 C 587.058594 124.03125 587.675781 123.757812 588.28125 123.457031 C 588.886719 123.152344 589.476562 122.824219 590.050781 122.460938 C 590.621094 122.101562 591.175781 121.710938 591.707031 121.296875 C 592.242188 120.878906 592.753906 120.4375 593.242188 119.972656 C 593.734375 119.503906 594.199219 119.015625 594.640625 118.5 C 595.078125 117.988281 595.492188 117.453125 595.882812 116.898438 C 596.269531 116.34375 596.628906 115.773438 596.957031 115.183594 C 597.289062 114.59375 597.589844 113.988281 597.859375 113.367188 C 598.128906 112.746094 598.367188 112.113281 598.574219 111.46875 C 598.78125 110.824219 598.953125 110.171875 599.097656 109.511719 C 599.238281 108.851562 599.347656 108.183594 599.421875 107.511719 C 599.496094 106.839844 599.539062 106.164062 599.546875 105.488281 C 599.554688 104.8125 599.527344 104.136719 599.46875 103.464844 C 599.410156 102.789062 599.316406 102.121094 599.191406 101.457031 C 599.0625 100.792969 598.90625 100.132812 598.714844 99.484375 C 598.523438 98.835938 598.296875 98.199219 598.042969 97.574219 C 597.789062 96.945312 597.503906 96.335938 597.1875 95.738281 C 597.1875 95.738281 564.652344 28.707031 495.296875 28.707031 C 450.246094 28.707031 415.160156 61.722656 388.582031 105.0625 C 362.003906 148.402344 341.695312 204.699219 325.710938 263.285156 C 313.980469 306.273438 307.101562 347.652344 300 388.335938 C 292.898438 347.652344 286.019531 306.273438 274.289062 263.285156 C 258.304688 204.699219 237.988281 148.402344 211.417969 105.0625 C 184.84375 61.722656 149.800781 28.707031 104.757812 28.707031 Z M 104.757812 28.707031 " fill-opacity="1" fill-rule="nonzero"/></g></svg>