<svg xmlns="http://www.w3.org/2000/svg" xmlns:xlink="http://www.w3.org/1999/xlink" width="800" zoomAndPan="magnify" viewBox="0 0 600 599.999999" height="800" preserveAspectRatio="xMidYMid meet" version="1.0"><defs><clipPath id="b4c2eb71ec"><path d="M 0.429688 256.503906 L 599.550781 256.503906 L 599.550781 526.125 L 0.429688 526.125 Z M 0.429688 256.503906 " clip-rule="nonzero"/></clipPath><clipPath id="d653f1a5dd"><path d="M 0.429688 73.875 L 599.550781 73.875 L 599.550781 344 L 0.429688 344 Z M 0.429688 73.875 " clip-rule="nonzero"/></clipPath></defs><g clip-path="url(#b4c2eb71ec)"><path fill="#000000" d="M 561.355469 417.683594 C 552.121094 435.488281 537.78125 449.019531 521.230469 459.496094 C 519.402344 459.367188 517.410156 459.652344 515.253906 460.464844 C 483.359375 472.515625 446.492188 466.707031 420.121094 444.738281 C 392.84375 422.015625 383.539062 385.128906 392.648438 351.332031 C 401.894531 317.050781 429.054688 292.410156 464.097656 286.566406 C 497.449219 280.996094 533.65625 293.324219 553.238281 321.636719 C 572.21875 349.082031 576.980469 387.566406 561.355469 417.683594 Z M 572.050781 298.882812 C 545.730469 266.0625 502.671875 252.117188 461.648438 257.945312 C 419.476562 263.929688 384.6875 291.320312 369.078125 330.941406 C 352.019531 374.226562 360.285156 426.414062 393.695312 459.636719 C 407.117188 472.992188 423.742188 482.886719 441.652344 488.898438 C 378.253906 502.039062 310.519531 498.535156 248.339844 483.253906 C 163.492188 462.414062 85.316406 418.359375 24.917969 355.082031 C 12.066406 341.617188 -8.320312 362.046875 4.511719 375.484375 C 67.710938 441.707031 150.144531 488.484375 238.863281 510.640625 C 323.257812 531.71875 421.515625 534.019531 503.257812 500.8125 C 542.96875 484.671875 579.296875 457.210938 593.511719 415.257812 C 606.722656 376.246094 597.632812 330.789062 572.050781 298.882812 " fill-opacity="1" fill-rule="nonzero"/></g><g clip-path="url(#d653f1a5dd)"><path fill="#000000" d="M 38.617188 182.363281 C 47.851562 164.566406 62.1875 151.027344 78.742188 140.542969 C 80.570312 140.679688 82.5625 140.40625 84.71875 139.589844 C 116.613281 127.53125 153.480469 133.339844 179.851562 155.308594 C 207.128906 178.03125 216.433594 214.917969 207.320312 248.71875 C 198.078125 283 170.917969 307.636719 135.875 313.488281 C 102.523438 319.050781 66.308594 306.722656 46.730469 278.410156 C 27.753906 250.972656 22.992188 212.480469 38.617188 182.363281 Z M 27.929688 301.164062 C 54.242188 333.988281 97.304688 347.941406 138.316406 342.109375 C 180.503906 336.117188 215.285156 308.726562 230.894531 269.105469 C 247.953125 225.828125 239.683594 173.632812 206.277344 140.414062 C 192.855469 127.066406 176.230469 117.160156 158.320312 111.148438 C 221.71875 98.007812 289.453125 101.511719 351.632812 116.792969 C 436.480469 137.644531 514.65625 181.6875 575.054688 244.972656 C 587.90625 258.429688 608.292969 238 595.460938 224.5625 C 532.261719 158.339844 449.828125 111.5625 361.109375 89.410156 C 276.710938 68.328125 178.457031 66.027344 96.722656 99.234375 C 57.003906 115.375 20.675781 142.835938 6.460938 184.789062 C -6.75 223.800781 2.339844 269.257812 27.929688 301.164062 " fill-opacity="1" fill-rule="nonzero"/></g></svg>