<svg xmlns="http://www.w3.org/2000/svg" xmlns:xlink="http://www.w3.org/1999/xlink" width="800" zoomAndPan="magnify" viewBox="0 0 600 599.999999" height="800" preserveAspectRatio="xMidYMid meet" version="1.0"><defs><clipPath id="93a2079685"><path d="M 0 16.5 L 600 16.5 L 600 583.5 L 0 583.5 Z M 0 16.5 " clip-rule="nonzero"/></clipPath></defs><g clip-path="url(#93a2079685)"><path fill="#000000" d="M 599.242188 508.933594 C 599.007812 508.109375 598.746094 507.300781 598.394531 506.53125 C 598.222656 506.160156 598.007812 505.820312 597.8125 505.460938 C 597.441406 504.789062 597.046875 504.140625 596.589844 503.53125 C 596.328125 503.175781 596.046875 502.847656 595.753906 502.515625 C 595.25 501.941406 594.710938 501.414062 594.132812 500.910156 C 593.9375 500.742188 593.789062 500.53125 593.585938 500.371094 L 525.773438 447.003906 C 518.542969 441.308594 508.0625 442.566406 502.371094 449.792969 C 496.679688 457.027344 497.933594 467.503906 505.164062 473.195312 L 535.160156 496.800781 L 515.46875 496.800781 C 468.898438 496.800781 431.003906 458.910156 431.003906 412.335938 L 431.003906 112.699219 C 431 59.65625 387.851562 16.5 334.800781 16.5 C 301.777344 16.5 272.601562 33.238281 255.269531 58.664062 C 237.941406 33.238281 208.761719 16.5 175.734375 16.5 C 135.542969 16.5 101.078125 41.296875 86.710938 76.375 C 69.152344 58.804688 44.285156 47.753906 16.664062 47.753906 C 7.460938 47.753906 0 55.214844 0 64.417969 C 0 73.621094 7.460938 81.082031 16.664062 81.082031 C 51.332031 81.082031 79.539062 106.675781 79.539062 138.132812 L 79.539062 460.097656 C 79.539062 469.304688 86.996094 476.765625 96.203125 476.765625 C 105.410156 476.765625 112.867188 469.304688 112.867188 460.097656 L 112.867188 112.699219 C 112.867188 78.03125 141.070312 49.832031 175.734375 49.832031 C 210.398438 49.832031 238.605469 78.035156 238.605469 112.699219 L 238.605469 460.097656 C 238.605469 469.304688 246.066406 476.761719 255.273438 476.761719 C 264.476562 476.761719 271.9375 469.304688 271.9375 460.097656 L 271.9375 112.699219 C 271.9375 78.03125 300.136719 49.832031 334.800781 49.832031 C 369.464844 49.832031 397.675781 78.035156 397.675781 112.699219 L 397.675781 412.335938 C 397.675781 477.289062 450.515625 530.132812 515.46875 530.132812 L 535.164062 530.132812 L 505.164062 553.738281 C 497.933594 559.429688 496.683594 569.90625 502.375 577.136719 C 505.660156 581.316406 510.550781 583.5 515.484375 583.5 C 519.09375 583.5 522.722656 582.335938 525.777344 579.929688 L 593.589844 526.5625 C 593.792969 526.398438 593.941406 526.191406 594.132812 526.019531 C 594.714844 525.519531 595.25 524.988281 595.757812 524.417969 C 596.046875 524.085938 596.328125 523.753906 596.59375 523.402344 C 597.050781 522.792969 597.441406 522.144531 597.8125 521.472656 C 598.011719 521.113281 598.226562 520.773438 598.394531 520.398438 C 598.75 519.632812 599.011719 518.824219 599.246094 518 C 599.335938 517.679688 599.464844 517.378906 599.535156 517.054688 C 599.792969 515.898438 599.945312 514.703125 599.945312 513.464844 C 599.945312 512.230469 599.792969 511.035156 599.535156 509.878906 C 599.464844 509.554688 599.335938 509.253906 599.242188 508.933594 Z M 599.242188 508.933594 " fill-opacity="1" fill-rule="nonzero"/></g></svg>