<svg xmlns="http://www.w3.org/2000/svg" xmlns:xlink="http://www.w3.org/1999/xlink" width="800" zoomAndPan="magnify" viewBox="0 0 600 599.999999" height="800" preserveAspectRatio="xMidYMid meet" version="1.0"><defs><clipPath id="f4c0823e5c"><path d="M 39.625 0 L 560 0 L 560 600 L 39.625 600 Z M 39.625 0 " clip-rule="nonzero"/></clipPath></defs><g clip-path="url(#f4c0823e5c)"><path fill="#000000" d="M 56.417969 316.640625 L 202.75 316.640625 C 195.757812 429.636719 142.65625 527.371094 64.546875 568.535156 C 56.410156 572.824219 53.285156 582.90625 57.574219 591.046875 C 60.554688 596.714844 66.339844 599.949219 72.324219 599.949219 C 74.945312 599.949219 77.597656 599.332031 80.074219 598.027344 C 168.925781 551.203125 229.15625 441.65625 236.207031 316.640625 L 363.554688 316.640625 C 370.753906 441.941406 430.941406 551.265625 519.671875 598.027344 C 522.148438 599.332031 524.804688 599.949219 527.421875 599.949219 C 533.40625 599.949219 539.191406 596.714844 542.171875 591.046875 C 546.460938 582.90625 543.335938 572.828125 535.199219 568.535156 C 457.203125 527.429688 404.132812 429.910156 397.003906 316.640625 L 543.332031 316.640625 C 552.53125 316.640625 559.988281 309.179688 559.988281 299.976562 C 559.988281 290.769531 552.53125 283.308594 543.332031 283.308594 L 396.230469 283.308594 C 398.234375 177.675781 441.019531 81.121094 509.097656 29.996094 C 516.457031 24.476562 517.945312 14.027344 512.421875 6.667969 C 506.898438 -0.699219 496.460938 -2.1875 489.101562 3.339844 C 412.84375 60.605469 364.96875 167.371094 362.917969 283.3125 L 236.828125 283.3125 C 234.777344 167.371094 186.90625 60.605469 110.644531 3.339844 C 103.285156 -2.179688 92.847656 -0.699219 87.328125 6.667969 C 81.804688 14.027344 83.292969 24.472656 90.652344 29.996094 C 158.730469 81.117188 201.515625 177.675781 203.519531 283.308594 L 56.417969 283.308594 C 47.21875 283.308594 39.761719 290.769531 39.761719 299.976562 C 39.761719 309.179688 47.21875 316.640625 56.417969 316.640625 Z M 56.417969 316.640625 " fill-opacity="1" fill-rule="nonzero"/></g></svg>