<svg xmlns="http://www.w3.org/2000/svg" xmlns:xlink="http://www.w3.org/1999/xlink" width="800" zoomAndPan="magnify" viewBox="0 0 600 599.999999" height="800" preserveAspectRatio="xMidYMid meet" version="1.0"><defs><clipPath id="ed8f4261cd"><path d="M 0 26.25 L 600 26.25 L 600 573.75 L 0 573.75 Z M 0 26.25 " clip-rule="nonzero"/></clipPath></defs><g clip-path="url(#ed8f4261cd)"><path fill="#000000" d="M 599.898438 40.910156 C 598.660156 31.789062 590.25 25.414062 581.148438 26.625 C 520.625 34.808594 472.601562 56.101562 438.417969 89.917969 C 428.714844 99.519531 421 109.195312 413.542969 118.558594 C 399.441406 136.257812 387.261719 151.546875 363.90625 164.464844 C 345.601562 174.585938 324.769531 180.636719 302 182.5625 C 301.339844 182.558594 300.6875 182.511719 300.023438 182.511719 C 299.890625 182.511719 299.757812 182.523438 299.621094 182.523438 C 247.722656 175.085938 206.9375 157.128906 178.507812 129 C 170.207031 120.789062 163.429688 112.289062 156.257812 103.285156 C 141.308594 84.519531 125.84375 65.113281 96.683594 48.988281 C 73.230469 36.015625 46.6875 28.457031 17.785156 26.515625 C 8.535156 25.90625 0.652344 32.84375 0.0390625 42.023438 C -0.578125 51.210938 6.363281 59.15625 15.546875 59.769531 C 39.539062 61.386719 61.402344 67.570312 80.550781 78.15625 C 103.90625 91.074219 116.082031 106.363281 130.1875 124.0625 C 137.648438 133.421875 145.359375 143.101562 155.0625 152.699219 C 174.164062 171.597656 197.738281 186.433594 225.246094 197.40625 C 154.445312 226.828125 104.519531 296.691406 104.519531 378.015625 C 104.519531 485.820312 192.222656 573.519531 300.023438 573.519531 C 407.824219 573.519531 495.527344 485.816406 495.527344 378.015625 C 495.527344 296.246094 445.042969 226.078125 373.625 196.941406 C 375.777344 195.863281 377.933594 194.792969 380.039062 193.632812 C 409.199219 177.503906 424.664062 158.097656 439.613281 139.332031 C 446.785156 130.328125 453.558594 121.828125 461.863281 113.617188 C 490.785156 85.007812 532.421875 66.851562 585.613281 59.660156 C 594.734375 58.429688 601.132812 50.03125 599.898438 40.910156 Z M 462.191406 378.019531 C 462.191406 467.441406 389.445312 540.1875 300.023438 540.1875 C 210.601562 540.1875 137.855469 467.441406 137.855469 378.019531 C 137.855469 289.503906 209.148438 217.371094 297.324219 215.917969 C 297.484375 215.941406 297.632812 215.976562 297.789062 215.996094 C 298.550781 216.097656 299.300781 216.148438 300.042969 216.148438 C 300.070312 216.148438 300.09375 216.140625 300.121094 216.140625 C 300.460938 216.136719 300.800781 216.128906 301.144531 216.105469 C 301.796875 216.058594 302.433594 215.976562 303.085938 215.925781 C 391.09375 217.570312 462.191406 289.625 462.191406 378.019531 Z M 462.191406 378.019531 " fill-opacity="1" fill-rule="nonzero"/></g></svg>